<?xml version="1.0" encoding="utf-8"?>
<svg viewBox="63.239 181.856 125.568 31" width="125.568" height="31" xmlns="http://www.w3.org/2000/svg">
  <path d="M 119.502 206.259 L 122.354 206.259 L 123.481 202.671 L 130.013 202.671 L 131.151 206.259 L 134.003 206.259 L 128.782 189.699 L 124.723 189.699 L 119.502 206.259 Z M 124.297 200.084 L 126.724 192.379 L 129.185 200.084 L 124.297 200.084 Z M 141.062 206.604 C 141.798 206.604 142.461 206.493 143.051 206.271 C 143.642 206.048 144.159 205.738 144.604 205.339 L 144.604 206.259 L 147.053 206.259 L 147.053 189.699 L 144.259 189.699 L 144.259 194.449 C 143.845 194.142 143.381 193.908 142.867 193.747 C 142.354 193.578 141.786 193.494 141.165 193.494 C 139.992 193.494 138.973 193.778 138.106 194.345 C 137.248 194.912 136.581 195.691 136.105 196.68 C 135.63 197.669 135.392 198.792 135.392 200.049 C 135.392 201.291 135.626 202.407 136.094 203.396 C 136.562 204.385 137.221 205.167 138.072 205.742 C 138.923 206.317 139.92 206.604 141.062 206.604 Z M 141.487 204.12 C 140.767 204.12 140.173 203.94 139.705 203.58 C 139.237 203.212 138.888 202.721 138.658 202.108 C 138.436 201.494 138.325 200.808 138.325 200.049 C 138.325 199.298 138.44 198.615 138.67 198.002 C 138.908 197.381 139.264 196.89 139.739 196.53 C 140.222 196.162 140.836 195.978 141.579 195.978 C 142.637 195.978 143.404 196.354 143.879 197.105 C 144.362 197.856 144.604 198.838 144.604 200.049 C 144.604 201.253 144.362 202.234 143.879 202.993 C 143.404 203.744 142.607 204.12 141.487 204.12 Z M 150.255 206.259 L 153.049 206.259 L 153.049 198.612 C 153.049 197.837 153.26 197.209 153.682 196.726 C 154.111 196.243 154.678 196.001 155.384 196.001 C 156.112 196.001 156.687 196.243 157.109 196.726 C 157.53 197.209 157.741 197.883 157.741 198.75 L 157.741 206.259 L 160.501 206.259 L 160.501 198.612 C 160.501 197.791 160.724 197.151 161.168 196.691 C 161.621 196.231 162.18 196.001 162.847 196.001 C 163.56 196.001 164.128 196.243 164.549 196.726 C 164.979 197.201 165.193 197.864 165.193 198.715 L 165.193 206.259 L 167.965 206.259 L 167.965 198.014 C 167.965 196.664 167.597 195.579 166.861 194.759 C 166.132 193.939 165.082 193.529 163.71 193.529 C 162.905 193.529 162.169 193.705 161.502 194.058 C 160.835 194.41 160.31 194.893 159.926 195.507 C 159.597 194.901 159.129 194.422 158.523 194.069 C 157.918 193.709 157.178 193.529 156.304 193.529 C 155.56 193.529 154.874 193.678 154.245 193.977 C 153.624 194.268 153.111 194.671 152.704 195.185 L 152.704 193.839 L 150.255 193.839 L 150.255 206.259 Z M 171.194 191.953 L 173.966 191.953 L 173.966 189.412 L 171.194 189.412 L 171.194 191.953 Z M 171.194 206.259 L 173.966 206.259 L 173.966 193.839 L 171.194 193.839 L 171.194 206.259 Z M 177.388 206.259 L 180.194 206.259 L 180.194 199.877 C 180.194 198.872 180.336 198.098 180.619 197.554 C 180.911 197.002 181.279 196.622 181.723 196.415 C 182.176 196.2 182.636 196.093 183.103 196.093 C 183.763 196.093 184.288 196.239 184.679 196.53 C 185.07 196.814 185.357 197.178 185.541 197.623 C 185.733 198.06 185.856 198.516 185.909 198.991 C 185.971 199.466 186.001 199.896 186.001 200.279 L 186.001 206.259 L 188.807 206.259 L 188.807 199.325 C 188.807 199.033 188.78 198.646 188.727 198.163 C 188.681 197.68 188.573 197.17 188.405 196.634 C 188.236 196.097 187.975 195.591 187.623 195.116 C 187.27 194.633 186.791 194.242 186.185 193.943 C 185.587 193.636 184.832 193.483 183.92 193.483 C 183.023 193.483 182.233 193.64 181.551 193.954 C 180.876 194.261 180.313 194.682 179.86 195.219 L 179.86 193.839 L 177.388 193.839 L 177.388 206.259 Z" fill="#1F3BB3" transform="matrix(1, 0, 0, 1, 7.105427357601002e-15, 3.552713678800501e-15)"/>
  <text style="white-space: pre; fill: rgb(51, 51, 51); font-family: Arial, sans-serif; font-size: 28px;" x="63.239" y="206.856" transform="matrix(1, 0, 0, 1, 7.105427357601002e-15, 3.552713678800501e-15)">ERP</text>
</svg>